<svg width="82" height="79" viewBox="0 0 82 79" fill="none" xmlns="http://www.w3.org/2000/svg">
<path d="M29 36.75H33.5V41.25H35V27.75V26.25H29V27.75H33.5V35.25H29V27.75H27.5V41.25H29V36.75Z" fill="white"/>
<path d="M39.5 36.75H45.5V27.75H44V35.25H39.5V27.75H44V26.25H38V41.25H39.5V36.75Z" fill="white"/>
<path d="M53 39.75H51.5V27.75H53V26.25H48.5V27.75H50V39.75H48.5V41.25H53V39.75Z" fill="white"/>
<path d="M21.5 5.8935V11.61L29 17.61V21.75H23V26.25H15.8555L11.849 21.3435C12.251 20.8335 12.5 20.199 12.5 19.5C12.5 17.844 11.156 16.5 9.5 16.5C7.844 16.5 6.5 17.844 6.5 19.5C6.5 21.156 7.844 22.5 9.5 22.5C9.9125 22.5 10.307 22.416 10.664 22.2645L15.1445 27.75H23V30.75H13.6895L11.015 33.4245C10.568 33.1605 10.055 33 9.5 33C7.844 33 6.5 34.344 6.5 36C6.5 37.656 7.844 39 9.5 39C11.156 39 12.5 37.656 12.5 36C12.5 35.445 12.3395 34.932 12.0755 34.485L14.3105 32.25H23V39.75H13.6895L11.015 42.4245C10.568 42.1605 10.055 42 9.5 42C7.844 42 6.5 43.344 6.5 45C6.5 46.656 7.844 48 9.5 48C11.156 48 12.5 46.656 12.5 45C12.5 44.445 12.3395 43.932 12.0755 43.485L14.3105 41.25H23V45.75H29V47.25C27.7085 47.5845 26.75 48.7485 26.75 50.1435C26.75 51.7995 28.094 53.1435 29.75 53.1435C31.406 53.1435 32.75 51.7995 32.75 50.1435C32.75 48.7485 31.7915 47.5845 30.5 47.25V45.75H36.5V47.25C35.2085 47.5845 34.25 48.7485 34.25 50.1435C34.25 51.7995 35.594 53.1435 37.25 53.1435C38.906 53.1435 40.25 51.7995 40.25 50.1435C40.25 48.7485 39.2915 47.5845 38 47.25V45.75H44V47.25C42.7085 47.5845 41.75 48.7485 41.75 50.1435C41.75 51.7995 43.094 53.1435 44.75 53.1435C46.406 53.1435 47.75 51.7995 47.75 50.1435C47.75 48.7485 46.7915 47.5845 45.5 47.25V45.75H51.5V47.25C50.2085 47.5845 49.25 48.7485 49.25 50.1435C49.25 51.7995 50.594 53.1435 52.25 53.1435C53.906 53.1435 55.25 51.7995 55.25 50.1435C55.25 48.7485 54.2915 47.5845 53 47.25V45.75H59V41.25H67.6895L69.9245 43.485C69.6605 43.932 69.5 44.445 69.5 45C69.5 46.656 70.844 48 72.5 48C74.156 48 75.5 46.656 75.5 45C75.5 43.344 74.156 42 72.5 42C71.945 42 71.432 42.1605 70.985 42.4245L68.3105 39.75H59V36.75H68.3045L70.58 34.536C71.1005 34.9755 71.765 35.25 72.5 35.25C74.156 35.25 75.5 33.906 75.5 32.25C75.5 30.594 74.156 29.25 72.5 29.25C70.844 29.25 69.5 30.594 69.5 32.25C69.5 32.6205 69.5765 32.9715 69.6995 33.3L67.6955 35.25H59V27.75H66.8555L71.3345 22.2645C71.693 22.416 72.0875 22.5 72.5 22.5C74.156 22.5 75.5 21.156 75.5 19.5C75.5 17.844 74.156 16.5 72.5 16.5C70.844 16.5 69.5 17.844 69.5 19.5C69.5 20.199 69.749 20.8335 70.151 21.3435L66.1445 26.25H59V21.75H53V17.61L60.5 11.61V5.8935C61.7915 5.559 62.75 4.395 62.75 3C62.75 1.344 61.406 0 59.75 0C58.094 0 56.75 1.344 56.75 3C56.75 4.395 57.7085 5.559 59 5.8935V10.89L51.5 16.89V21.75H45.5V14.616L53 8.7405V5.8935C54.2915 5.559 55.25 4.395 55.25 3C55.25 1.344 53.906 0 52.25 0C50.594 0 49.25 1.344 49.25 3C49.25 4.395 50.2085 5.559 51.5 5.8935V8.01L44 13.8855V21.75H38V13.884L30.5 8.01V5.8935C31.7915 5.559 32.75 4.395 32.75 3C32.75 1.344 31.406 0 29.75 0C28.094 0 26.75 1.344 26.75 3C26.75 4.395 27.7085 5.559 29 5.8935V8.7405L36.5 14.616V21.75H30.5V16.89L23 10.89V5.8935C24.2915 5.559 25.25 4.395 25.25 3C25.25 1.344 23.906 0 22.25 0C20.594 0 19.25 1.344 19.25 3C19.25 4.395 20.2085 5.559 21.5 5.8935ZM9.5 21C8.672 21 8 20.328 8 19.5C8 18.672 8.672 18 9.5 18C10.328 18 11 18.672 11 19.5C11 20.328 10.328 21 9.5 21ZM9.5 37.5C8.672 37.5 8 36.828 8 36C8 35.172 8.672 34.5 9.5 34.5C10.328 34.5 11 35.172 11 36C11 36.828 10.328 37.5 9.5 37.5ZM9.5 46.5C8.672 46.5 8 45.828 8 45C8 44.172 8.672 43.5 9.5 43.5C10.328 43.5 11 44.172 11 45C11 45.828 10.328 46.5 9.5 46.5ZM72.5 43.5C73.328 43.5 74 44.172 74 45C74 45.828 73.328 46.5 72.5 46.5C71.672 46.5 71 45.828 71 45C71 44.172 71.672 43.5 72.5 43.5ZM72.5 30.75C73.328 30.75 74 31.422 74 32.25C74 33.078 73.328 33.75 72.5 33.75C71.672 33.75 71 33.078 71 32.25C71 31.422 71.672 30.75 72.5 30.75ZM72.5 18C73.328 18 74 18.672 74 19.5C74 20.328 73.328 21 72.5 21C71.672 21 71 20.328 71 19.5C71 18.672 71.672 18 72.5 18ZM58.25 3C58.25 2.172 58.922 1.5 59.75 1.5C60.578 1.5 61.25 2.172 61.25 3C61.25 3.828 60.578 4.5 59.75 4.5C58.922 4.5 58.25 3.828 58.25 3ZM50.75 3C50.75 2.172 51.422 1.5 52.25 1.5C53.078 1.5 53.75 2.172 53.75 3C53.75 3.828 53.078 4.5 52.25 4.5C51.422 4.5 50.75 3.828 50.75 3ZM28.25 3C28.25 2.172 28.922 1.5 29.75 1.5C30.578 1.5 31.25 2.172 31.25 3C31.25 3.828 30.578 4.5 29.75 4.5C28.922 4.5 28.25 3.828 28.25 3ZM31.25 50.1435C31.25 50.9715 30.578 51.6435 29.75 51.6435C28.922 51.6435 28.25 50.9715 28.25 50.1435C28.25 49.3155 28.922 48.6435 29.75 48.6435C30.578 48.6435 31.25 49.3155 31.25 50.1435ZM38.75 50.1435C38.75 50.9715 38.078 51.6435 37.25 51.6435C36.422 51.6435 35.75 50.9715 35.75 50.1435C35.75 49.3155 36.422 48.6435 37.25 48.6435C38.078 48.6435 38.75 49.3155 38.75 50.1435ZM46.25 50.1435C46.25 50.9715 45.578 51.6435 44.75 51.6435C43.922 51.6435 43.25 50.9715 43.25 50.1435C43.25 49.3155 43.922 48.6435 44.75 48.6435C45.578 48.6435 46.25 49.3155 46.25 50.1435ZM53.75 50.1435C53.75 50.9715 53.078 51.6435 52.25 51.6435C51.422 51.6435 50.75 50.9715 50.75 50.1435C50.75 49.3155 51.422 48.6435 52.25 48.6435C53.078 48.6435 53.75 49.3155 53.75 50.1435ZM57.5 23.25V26.25V27.75V35.25V36.75V39.75V41.25V44.25H24.5V41.25V39.75V32.25V30.75V27.75V26.25V23.25H57.5ZM22.25 1.5C23.078 1.5 23.75 2.172 23.75 3C23.75 3.828 23.078 4.5 22.25 4.5C21.422 4.5 20.75 3.828 20.75 3C20.75 2.172 21.422 1.5 22.25 1.5Z" fill="white"/>
<path d="M78.5 8.25H62V9.75H78.5C79.3265 9.75 80 10.4235 80 11.25V59.25H2V11.25C2 10.4235 2.6735 9.75 3.5 9.75H20V8.25H3.5C1.85 8.25 0.5 9.6 0.5 11.25V59.25V59.682V63.75C0.5 65.4 1.85 66.75 3.5 66.75H31.571L29.4275 74.25H24.5C22.844 74.25 21.5 75.594 21.5 77.25V78.75H60.5V77.25C60.5 75.594 59.156 74.25 57.5 74.25H52.571L50.4275 66.75H78.5C80.15 66.75 81.5 65.4 81.5 63.75V60.4875V59.25V11.25C81.5 9.6 80.15 8.25 78.5 8.25ZM53 75.75H57.5C58.3265 75.75 59 76.4235 59 77.25H23C23 76.4235 23.6735 75.75 24.5 75.75H29H53ZM51.011 74.25H30.989L33.1325 66.75H48.869L51.011 74.25ZM80 63.75C80 64.5765 79.3265 65.25 78.5 65.25H50H32H3.5C2.6735 65.25 2 64.5765 2 63.75V60.75H80V63.75Z" fill="white"/>
<path d="M24.5 8.25V9.75H27.8555L27.5 9.471V8.25H24.5Z" fill="white"/>
<path d="M46.8455 9.75L48.761 8.25H33.239L35.1545 9.75H46.8455Z" fill="white"/>
<path d="M57.5 8.25H54.5V9.471L54.1445 9.75H57.5V8.25Z" fill="white"/>
<path d="M43.016 12.75L44.9315 11.25H37.0685L38.984 12.75H43.016Z" fill="white"/>
<path d="M3.5 11.25V56.25H78.5V11.25H62V12.3315L61.4765 12.75H77V54.75H5V12.75H20.5235L20 12.3315V11.25H3.5Z" fill="white"/>
<path d="M31.6866 12.75L29.7711 11.25H25.8516L27.7266 12.75H31.6866Z" fill="white"/>
<path d="M50.3135 12.75H54.2735L56.1485 11.25H52.229L50.3135 12.75Z" fill="white"/>
</svg>
