<svg width="96" height="96" viewBox="0 0 96 96" fill="none" xmlns="http://www.w3.org/2000/svg">
<rect width="96" height="96" fill="#151D1F"/>
<path d="M36 43.75H40.5V48.25H42V34.75V33.25H36V34.75H40.5V42.25H36V34.75H34.5V48.25H36V43.75Z" fill="white"/>
<path d="M46.5 43.75H52.5V34.75H51V42.25H46.5V34.75H51V33.25H45V48.25H46.5V43.75Z" fill="white"/>
<path d="M60 46.75H58.5V34.75H60V33.25H55.5V34.75H57V46.75H55.5V48.25H60V46.75Z" fill="white"/>
<path d="M28.5 12.8935V18.61L36 24.61V28.75H30V33.25H22.8555L18.849 28.3435C19.251 27.8335 19.5 27.199 19.5 26.5C19.5 24.844 18.156 23.5 16.5 23.5C14.844 23.5 13.5 24.844 13.5 26.5C13.5 28.156 14.844 29.5 16.5 29.5C16.9125 29.5 17.307 29.416 17.664 29.2645L22.1445 34.75H30V37.75H20.6895L18.015 40.4245C17.568 40.1605 17.055 40 16.5 40C14.844 40 13.5 41.344 13.5 43C13.5 44.656 14.844 46 16.5 46C18.156 46 19.5 44.656 19.5 43C19.5 42.445 19.3395 41.932 19.0755 41.485L21.3105 39.25H30V46.75H20.6895L18.015 49.4245C17.568 49.1605 17.055 49 16.5 49C14.844 49 13.5 50.344 13.5 52C13.5 53.656 14.844 55 16.5 55C18.156 55 19.5 53.656 19.5 52C19.5 51.445 19.3395 50.932 19.0755 50.485L21.3105 48.25H30V52.75H36V54.25C34.7085 54.5845 33.75 55.7485 33.75 57.1435C33.75 58.7995 35.094 60.1435 36.75 60.1435C38.406 60.1435 39.75 58.7995 39.75 57.1435C39.75 55.7485 38.7915 54.5845 37.5 54.25V52.75H43.5V54.25C42.2085 54.5845 41.25 55.7485 41.25 57.1435C41.25 58.7995 42.594 60.1435 44.25 60.1435C45.906 60.1435 47.25 58.7995 47.25 57.1435C47.25 55.7485 46.2915 54.5845 45 54.25V52.75H51V54.25C49.7085 54.5845 48.75 55.7485 48.75 57.1435C48.75 58.7995 50.094 60.1435 51.75 60.1435C53.406 60.1435 54.75 58.7995 54.75 57.1435C54.75 55.7485 53.7915 54.5845 52.5 54.25V52.75H58.5V54.25C57.2085 54.5845 56.25 55.7485 56.25 57.1435C56.25 58.7995 57.594 60.1435 59.25 60.1435C60.906 60.1435 62.25 58.7995 62.25 57.1435C62.25 55.7485 61.2915 54.5845 60 54.25V52.75H66V48.25H74.6895L76.9245 50.485C76.6605 50.932 76.5 51.445 76.5 52C76.5 53.656 77.844 55 79.5 55C81.156 55 82.5 53.656 82.5 52C82.5 50.344 81.156 49 79.5 49C78.945 49 78.432 49.1605 77.985 49.4245L75.3105 46.75H66V43.75H75.3045L77.58 41.536C78.1005 41.9755 78.765 42.25 79.5 42.25C81.156 42.25 82.5 40.906 82.5 39.25C82.5 37.594 81.156 36.25 79.5 36.25C77.844 36.25 76.5 37.594 76.5 39.25C76.5 39.6205 76.5765 39.9715 76.6995 40.3L74.6955 42.25H66V34.75H73.8555L78.3345 29.2645C78.693 29.416 79.0875 29.5 79.5 29.5C81.156 29.5 82.5 28.156 82.5 26.5C82.5 24.844 81.156 23.5 79.5 23.5C77.844 23.5 76.5 24.844 76.5 26.5C76.5 27.199 76.749 27.8335 77.151 28.3435L73.1445 33.25H66V28.75H60V24.61L67.5 18.61V12.8935C68.7915 12.559 69.75 11.395 69.75 10C69.75 8.344 68.406 7 66.75 7C65.094 7 63.75 8.344 63.75 10C63.75 11.395 64.7085 12.559 66 12.8935V17.89L58.5 23.89V28.75H52.5V21.616L60 15.7405V12.8935C61.2915 12.559 62.25 11.395 62.25 10C62.25 8.344 60.906 7 59.25 7C57.594 7 56.25 8.344 56.25 10C56.25 11.395 57.2085 12.559 58.5 12.8935V15.01L51 20.8855V28.75H45V20.884L37.5 15.01V12.8935C38.7915 12.559 39.75 11.395 39.75 10C39.75 8.344 38.406 7 36.75 7C35.094 7 33.75 8.344 33.75 10C33.75 11.395 34.7085 12.559 36 12.8935V15.7405L43.5 21.616V28.75H37.5V23.89L30 17.89V12.8935C31.2915 12.559 32.25 11.395 32.25 10C32.25 8.344 30.906 7 29.25 7C27.594 7 26.25 8.344 26.25 10C26.25 11.395 27.2085 12.559 28.5 12.8935ZM16.5 28C15.672 28 15 27.328 15 26.5C15 25.672 15.672 25 16.5 25C17.328 25 18 25.672 18 26.5C18 27.328 17.328 28 16.5 28ZM16.5 44.5C15.672 44.5 15 43.828 15 43C15 42.172 15.672 41.5 16.5 41.5C17.328 41.5 18 42.172 18 43C18 43.828 17.328 44.5 16.5 44.5ZM16.5 53.5C15.672 53.5 15 52.828 15 52C15 51.172 15.672 50.5 16.5 50.5C17.328 50.5 18 51.172 18 52C18 52.828 17.328 53.5 16.5 53.5ZM79.5 50.5C80.328 50.5 81 51.172 81 52C81 52.828 80.328 53.5 79.5 53.5C78.672 53.5 78 52.828 78 52C78 51.172 78.672 50.5 79.5 50.5ZM79.5 37.75C80.328 37.75 81 38.422 81 39.25C81 40.078 80.328 40.75 79.5 40.75C78.672 40.75 78 40.078 78 39.25C78 38.422 78.672 37.75 79.5 37.75ZM79.5 25C80.328 25 81 25.672 81 26.5C81 27.328 80.328 28 79.5 28C78.672 28 78 27.328 78 26.5C78 25.672 78.672 25 79.5 25ZM65.25 10C65.25 9.172 65.922 8.5 66.75 8.5C67.578 8.5 68.25 9.172 68.25 10C68.25 10.828 67.578 11.5 66.75 11.5C65.922 11.5 65.25 10.828 65.25 10ZM57.75 10C57.75 9.172 58.422 8.5 59.25 8.5C60.078 8.5 60.75 9.172 60.75 10C60.75 10.828 60.078 11.5 59.25 11.5C58.422 11.5 57.75 10.828 57.75 10ZM35.25 10C35.25 9.172 35.922 8.5 36.75 8.5C37.578 8.5 38.25 9.172 38.25 10C38.25 10.828 37.578 11.5 36.75 11.5C35.922 11.5 35.25 10.828 35.25 10ZM38.25 57.1435C38.25 57.9715 37.578 58.6435 36.75 58.6435C35.922 58.6435 35.25 57.9715 35.25 57.1435C35.25 56.3155 35.922 55.6435 36.75 55.6435C37.578 55.6435 38.25 56.3155 38.25 57.1435ZM45.75 57.1435C45.75 57.9715 45.078 58.6435 44.25 58.6435C43.422 58.6435 42.75 57.9715 42.75 57.1435C42.75 56.3155 43.422 55.6435 44.25 55.6435C45.078 55.6435 45.75 56.3155 45.75 57.1435ZM53.25 57.1435C53.25 57.9715 52.578 58.6435 51.75 58.6435C50.922 58.6435 50.25 57.9715 50.25 57.1435C50.25 56.3155 50.922 55.6435 51.75 55.6435C52.578 55.6435 53.25 56.3155 53.25 57.1435ZM60.75 57.1435C60.75 57.9715 60.078 58.6435 59.25 58.6435C58.422 58.6435 57.75 57.9715 57.75 57.1435C57.75 56.3155 58.422 55.6435 59.25 55.6435C60.078 55.6435 60.75 56.3155 60.75 57.1435ZM64.5 30.25V33.25V34.75V42.25V43.75V46.75V48.25V51.25H31.5V48.25V46.75V39.25V37.75V34.75V33.25V30.25H64.5ZM29.25 8.5C30.078 8.5 30.75 9.172 30.75 10C30.75 10.828 30.078 11.5 29.25 11.5C28.422 11.5 27.75 10.828 27.75 10C27.75 9.172 28.422 8.5 29.25 8.5Z" fill="white"/>
<path d="M85.5 15.25H69V16.75H85.5C86.3265 16.75 87 17.4235 87 18.25V66.25H9V18.25C9 17.4235 9.6735 16.75 10.5 16.75H27V15.25H10.5C8.85 15.25 7.5 16.6 7.5 18.25V66.25V66.682V70.75C7.5 72.4 8.85 73.75 10.5 73.75H38.571L36.4275 81.25H31.5C29.844 81.25 28.5 82.594 28.5 84.25V85.75H67.5V84.25C67.5 82.594 66.156 81.25 64.5 81.25H59.571L57.4275 73.75H85.5C87.15 73.75 88.5 72.4 88.5 70.75V67.4875V66.25V18.25C88.5 16.6 87.15 15.25 85.5 15.25ZM60 82.75H64.5C65.3265 82.75 66 83.4235 66 84.25H30C30 83.4235 30.6735 82.75 31.5 82.75H36H60ZM58.011 81.25H37.989L40.1325 73.75H55.869L58.011 81.25ZM87 70.75C87 71.5765 86.3265 72.25 85.5 72.25H57H39H10.5C9.6735 72.25 9 71.5765 9 70.75V67.75H87V70.75Z" fill="white"/>
<path d="M31.5 15.25V16.75H34.8555L34.5 16.471V15.25H31.5Z" fill="white"/>
<path d="M53.8455 16.75L55.761 15.25H40.239L42.1545 16.75H53.8455Z" fill="white"/>
<path d="M64.5 15.25H61.5V16.471L61.1445 16.75H64.5V15.25Z" fill="white"/>
<path d="M50.016 19.75L51.9315 18.25H44.0685L45.984 19.75H50.016Z" fill="white"/>
<path d="M10.5 18.25V63.25H85.5V18.25H69V19.3315L68.4765 19.75H84V61.75H12V19.75H27.5235L27 19.3315V18.25H10.5Z" fill="white"/>
<path d="M38.6866 19.75L36.7711 18.25H32.8516L34.7266 19.75H38.6866Z" fill="white"/>
<path d="M57.3135 19.75H61.2735L63.1485 18.25H59.229L57.3135 19.75Z" fill="white"/>
</svg>
