<svg width="96" height="96" viewBox="0 0 96 96" fill="none" xmlns="http://www.w3.org/2000/svg">
<rect width="96" height="96" fill="#151D1F"/>
<path d="M14.928 26.784C15.8117 26.784 16.528 26.0676 16.528 25.184C16.528 24.3003 15.8117 23.584 14.928 23.584C14.0443 23.584 13.328 24.3003 13.328 25.184C13.328 26.0676 14.0443 26.784 14.928 26.784Z" fill="white"/>
<path d="M25.6 26.784C26.4837 26.784 27.2 26.0676 27.2 25.184C27.2 24.3003 26.4837 23.584 25.6 23.584C24.7163 23.584 24 24.3003 24 25.184C24 26.0676 24.7163 26.784 25.6 26.784Z" fill="white"/>
<path d="M20.272 26.784C21.1557 26.784 21.872 26.0676 21.872 25.184C21.872 24.3003 21.1557 23.584 20.272 23.584C19.3883 23.584 18.672 24.3003 18.672 25.184C18.672 26.0676 19.3883 26.784 20.272 26.784Z" fill="white"/>
<path d="M32 48.4L36.8 43.6C37.1013 43.2987 37.2705 42.8901 37.2705 42.464C37.2705 42.0379 37.1013 41.6293 36.8 41.328C36.4987 41.0267 36.0901 40.8574 35.664 40.8574C35.2379 40.8574 34.8293 41.0267 34.528 41.328L28.576 47.296C28.278 47.5957 28.1107 48.0013 28.1107 48.424C28.1107 48.8467 28.278 49.2522 28.576 49.552L34.528 55.52C34.6767 55.6699 34.8537 55.789 35.0487 55.8702C35.2436 55.9514 35.4528 55.9933 35.664 55.9933C35.8752 55.9933 36.0843 55.9514 36.2793 55.8702C36.4743 55.789 36.6512 55.6699 36.8 55.52C37.098 55.2202 37.2653 54.8147 37.2653 54.392C37.2653 53.9693 37.098 53.5638 36.8 53.264L32 48.4Z" fill="white"/>
<path d="M54.912 55.488C55.2118 55.786 55.6173 55.9533 56.04 55.9533C56.4627 55.9533 56.8682 55.786 57.168 55.488L63.136 49.6C63.434 49.3003 63.6013 48.8947 63.6013 48.472C63.6013 48.0493 63.434 47.6438 63.136 47.344L57.168 41.376C56.8667 41.0769 56.4589 40.9096 56.0343 40.9111C55.6097 40.9126 55.2031 41.0827 54.904 41.384C54.6048 41.6853 54.4376 42.0931 54.4391 42.5177C54.4406 42.9423 54.6107 43.3489 54.912 43.648L59.712 48.448L54.912 53.248C54.6188 53.5471 54.4546 53.9492 54.4546 54.368C54.4546 54.7868 54.6188 55.1889 54.912 55.488Z" fill="white"/>
<path d="M49.6 41.8399C49.4174 41.7341 49.2157 41.6655 49.0064 41.638C48.7972 41.6105 48.5845 41.6247 48.3808 41.6797C48.1771 41.7348 47.9862 41.8295 47.8193 41.9586C47.6523 42.0877 47.5125 42.2486 47.408 42.4319L41.504 52.7999C41.3882 52.982 41.3105 53.1857 41.2755 53.3986C41.2405 53.6115 41.2489 53.8294 41.3002 54.0389C41.3516 54.2485 41.4448 54.4456 41.5742 54.6182C41.7037 54.7909 41.8667 54.9355 42.0536 55.0435C42.2404 55.1515 42.4471 55.2206 42.6613 55.2466C42.8756 55.2726 43.0928 55.2551 43.3001 55.1949C43.5073 55.1348 43.7003 55.0334 43.8673 54.8968C44.0343 54.7601 44.172 54.5911 44.272 54.3999L50.24 44.0799C50.3517 43.8925 50.4238 43.6841 50.4519 43.4677C50.4801 43.2514 50.4637 43.0315 50.4037 42.8217C50.3438 42.6119 50.2416 42.4166 50.1034 42.2477C49.9651 42.0789 49.7938 41.9401 49.6 41.8399Z" fill="white"/>
<path d="M89.376 63.9999C89.2816 63.9992 89.1897 63.9697 89.1125 63.9154C89.0353 63.8611 88.9765 63.7845 88.944 63.6959C88.3073 62.0212 87.4051 60.4598 86.272 59.0719C86.2183 58.9944 86.1896 58.9023 86.1896 58.8079C86.1896 58.7136 86.2183 58.6215 86.272 58.5439C86.7593 57.6993 86.8915 56.6958 86.6395 55.7539C86.3875 54.8119 85.7719 54.0084 84.928 53.5199L83.728 52.7999V23.5839C83.728 22.3109 83.2223 21.09 82.3221 20.1898C81.4219 19.2896 80.201 18.7839 78.928 18.7839H12.8C11.527 18.7839 10.3061 19.2896 9.40589 20.1898C8.50571 21.09 8 22.3109 8 23.5839V64.1279C8.00421 65.1154 8.39833 66.0611 9.09656 66.7594C9.79478 67.4576 10.7406 67.8517 11.728 67.8559H33.6L32 73.7759H29.872C28.3136 73.777 26.8011 74.3035 25.5788 75.2702C24.3565 76.237 23.4959 77.5877 23.136 79.1039H19.2C18.7757 79.1039 18.3687 79.2725 18.0686 79.5726C17.7686 79.8726 17.6 80.2796 17.6 80.7039C17.6 81.1283 17.7686 81.5352 18.0686 81.8353C18.3687 82.1354 18.7757 82.3039 19.2 82.3039H59.952C59.9249 82.6862 59.9628 83.0703 60.064 83.4399C60.184 83.9093 60.3974 84.3496 60.6916 84.7345C60.9858 85.1194 61.3546 85.441 61.776 85.6799L65.152 87.6319C65.5712 87.8726 66.0336 88.0283 66.513 88.0901C66.9923 88.152 67.4792 88.1189 67.9457 87.9926C68.4122 87.8663 68.8493 87.6493 69.232 87.3541C69.6147 87.0589 69.9355 86.6911 70.176 86.2719C70.2278 86.1903 70.3024 86.1256 70.3905 86.0858C70.4787 86.046 70.5765 86.0329 70.672 86.0479C72.4296 86.3519 74.2264 86.3519 75.984 86.0479C76.0813 86.0322 76.1811 86.0467 76.2699 86.0897C76.3586 86.1326 76.432 86.2018 76.48 86.2879C76.8061 86.8463 77.2736 87.3089 77.8354 87.6291C78.3972 87.9493 79.0334 88.1159 79.68 88.1119C80.3251 88.1182 80.9602 87.9525 81.52 87.6319L84.896 85.6799C85.3151 85.4381 85.6822 85.1157 85.9761 84.7312C86.2699 84.3467 86.4847 83.9079 86.608 83.4399C86.7354 82.9748 86.7685 82.4889 86.7053 82.0107C86.6421 81.5326 86.4839 81.072 86.24 80.6559C86.185 80.5759 86.1555 80.4811 86.1555 80.3839C86.1555 80.2868 86.185 80.192 86.24 80.1119C87.3696 78.7275 88.2716 77.172 88.912 75.5039C88.9425 75.414 89.0008 75.3361 89.0784 75.2815C89.1561 75.2269 89.2491 75.1983 89.344 75.1999C90.3187 75.1957 91.2523 74.8067 91.9415 74.1174C92.6307 73.4282 93.0198 72.4946 93.024 71.5199V67.6159C93.0073 66.6566 92.6167 65.7417 91.9352 65.0662C91.2538 64.3907 90.3355 64.0081 89.376 63.9999ZM11.2 23.5839C11.2 23.1596 11.3686 22.7526 11.6686 22.4526C11.9687 22.1525 12.3757 21.9839 12.8 21.9839H78.928C79.3523 21.9839 79.7593 22.1525 80.0594 22.4526C80.3594 22.7526 80.528 23.1596 80.528 23.5839V28.3839H11.2V23.5839ZM11.728 64.6559C11.6587 64.6559 11.59 64.6423 11.5259 64.6157C11.4619 64.5892 11.4037 64.5503 11.3546 64.5013C11.3056 64.4523 11.2667 64.3941 11.2402 64.33C11.2137 64.2659 11.2 64.1973 11.2 64.1279V31.5839H80.528V51.1999C79.7709 50.9988 78.9692 51.0457 78.2407 51.3337C77.5121 51.6216 76.8951 52.1355 76.48 52.7999C76.4302 52.8789 76.3577 52.9409 76.2721 52.978C76.1865 53.0151 76.0916 53.0256 76 53.0079C74.2411 52.7198 72.447 52.7198 70.688 53.0079C70.5963 53.0279 70.5006 53.0186 70.4145 52.9813C70.3284 52.9439 70.2561 52.8805 70.208 52.7999C69.9677 52.3805 69.6467 52.0127 69.2636 51.7179C68.8805 51.4231 68.4428 51.207 67.9758 51.082C67.5088 50.9571 67.0217 50.9258 66.5425 50.99C66.0634 51.0542 65.6017 51.2125 65.184 51.4559L61.808 53.4079C61.3877 53.6444 61.0194 53.9632 60.7252 54.3454C60.4311 54.7275 60.2171 55.1651 60.096 55.6319C59.8401 56.5752 59.9666 57.5813 60.448 58.4319C60.5064 58.5076 60.5381 58.6004 60.5381 58.6959C60.5381 58.7915 60.5064 58.8843 60.448 58.9599C59.3149 60.3478 58.4127 61.9092 57.776 63.5839C57.7435 63.6725 57.6847 63.7491 57.6075 63.8034C57.5303 63.8577 57.4384 63.8872 57.344 63.8879C56.5603 63.8891 55.7977 64.1414 55.168 64.6079L11.728 64.6559ZM54.4 73.7759H35.2L36.8 67.8559H53.6V71.5199C53.6102 72.3396 53.8915 73.1329 54.4 73.7759ZM29.888 76.9759H58.368C58.7337 77.7136 59.1507 78.4247 59.616 79.1039H26.512C26.8141 78.4682 27.2899 77.931 27.8845 77.5544C28.4791 77.1779 29.1682 76.9773 29.872 76.9759H29.888ZM89.856 71.5199C89.856 71.6472 89.8054 71.7693 89.7154 71.8593C89.6254 71.9494 89.5033 71.9999 89.376 71.9999C88.6307 72.0018 87.9034 72.2289 87.2895 72.6515C86.6756 73.0741 86.2038 73.6724 85.936 74.3679C85.4246 75.7169 84.7008 76.9755 83.792 78.0959C83.3234 78.6748 83.0406 79.3817 82.9806 80.124C82.9207 80.8663 83.0864 81.6094 83.456 82.2559C83.4817 82.311 83.4951 82.3711 83.4951 82.4319C83.4951 82.4927 83.4817 82.5528 83.456 82.6079C83.4421 82.6715 83.4149 82.7314 83.3763 82.7837C83.3377 82.8361 83.2886 82.8798 83.232 82.9119L79.904 84.7999C79.8484 84.8308 79.7873 84.8504 79.7241 84.8575C79.6609 84.8645 79.5969 84.859 79.5359 84.8411C79.4748 84.8233 79.4179 84.7934 79.3685 84.7534C79.3191 84.7134 79.2781 84.6639 79.248 84.6079C78.8697 83.9631 78.3048 83.4482 77.6278 83.1311C76.9508 82.8141 76.1935 82.7097 75.456 82.8319C74.0475 83.0719 72.6085 83.0719 71.2 82.8319C70.4608 82.7112 69.7024 82.818 69.0252 83.138C68.348 83.458 67.7841 83.9762 67.408 84.6239C67.3416 84.7312 67.2367 84.8091 67.1148 84.8418C66.993 84.8745 66.8632 84.8596 66.752 84.7999L63.376 82.8479C63.3194 82.8158 63.2703 82.7721 63.2317 82.7197C63.1931 82.6674 63.1659 82.6075 63.152 82.5439C63.1263 82.4888 63.1129 82.4287 63.1129 82.3679C63.1129 82.3071 63.1263 82.247 63.152 82.1919C63.5173 81.5441 63.6806 80.8018 63.6207 80.0605C63.5608 79.3192 63.2806 78.6127 62.816 78.0319C61.899 76.9143 61.1696 75.6553 60.656 74.3039C60.3876 73.6267 59.9227 73.0454 59.321 72.6347C58.7193 72.2241 58.0084 72.003 57.28 71.9999C57.1527 71.9999 57.0306 71.9494 56.9406 71.8593C56.8506 71.7693 56.8 71.6472 56.8 71.5199V67.6159C56.7978 67.5523 56.8087 67.4889 56.832 67.4296C56.8553 67.3704 56.8906 67.3166 56.9356 67.2716C56.9806 67.2265 57.0345 67.1912 57.0937 67.1679C57.153 67.1446 57.2164 67.1337 57.28 67.1359C58.0231 67.1331 58.7479 66.9053 59.359 66.4826C59.9702 66.06 60.4391 65.4622 60.704 64.7679C61.2139 63.4149 61.9437 62.1553 62.864 61.0399C63.3286 60.4592 63.6088 59.7527 63.6687 59.0114C63.7286 58.27 63.5653 57.5277 63.2 56.8799C63.1739 56.8221 63.1605 56.7594 63.1605 56.6959C63.1605 56.6325 63.1739 56.5698 63.2 56.5119C63.213 56.4501 63.2399 56.392 63.2787 56.3421C63.3176 56.2922 63.3672 56.2518 63.424 56.2239L66.8 54.2719C66.8785 54.2501 66.9615 54.2501 67.04 54.2719C67.1201 54.2729 67.1986 54.294 67.2685 54.3331C67.3383 54.3722 67.3973 54.4282 67.44 54.4959C67.8177 55.1421 68.3819 55.659 69.0587 55.9788C69.7354 56.2986 70.493 56.4064 71.232 56.2879C72.6405 56.048 74.0795 56.048 75.488 56.2879C76.232 56.3884 76.9889 56.2619 77.6598 55.9251C78.3307 55.5882 78.8842 55.0566 79.248 54.3999C79.2793 54.3472 79.3207 54.3011 79.3699 54.2645C79.4191 54.2278 79.4751 54.2013 79.5346 54.1864C79.5941 54.1715 79.656 54.1686 79.7167 54.1778C79.7773 54.187 79.8356 54.2081 79.888 54.2399L83.264 56.1919C83.3208 56.2198 83.3704 56.2602 83.4093 56.3101C83.4481 56.36 83.475 56.4181 83.488 56.4799C83.5141 56.5378 83.5275 56.6005 83.5275 56.6639C83.5275 56.7274 83.5141 56.7901 83.488 56.8479C83.1197 57.492 82.9548 58.2324 83.0147 58.9719C83.0747 59.7115 83.3568 60.4156 83.824 60.9919C84.7331 62.1181 85.4569 63.3819 85.968 64.7359C86.2202 65.4431 86.681 66.0572 87.2894 66.4971C87.8979 66.937 88.6254 67.1821 89.376 67.1999C89.4396 67.1977 89.5031 67.2086 89.5623 67.2319C89.6215 67.2552 89.6754 67.2905 89.7204 67.3355C89.7654 67.3806 89.8007 67.4344 89.824 67.4936C89.8474 67.5529 89.8582 67.6163 89.856 67.6799V71.5199Z" fill="white"/>
<path d="M73.328 62.304C71.8913 62.304 70.4869 62.73 69.2923 63.5282C68.0977 64.3263 67.1667 65.4608 66.6169 66.7881C66.0671 68.1155 65.9233 69.576 66.2035 70.9851C66.4838 72.3942 67.1757 73.6885 68.1915 74.7044C69.2074 75.7203 70.5018 76.4121 71.9108 76.6924C73.3199 76.9727 74.7805 76.8288 76.1078 76.279C77.4351 75.7292 78.5696 74.7982 79.3678 73.6036C80.1659 72.4091 80.592 71.0046 80.592 69.568C80.592 67.6414 79.8267 65.7938 78.4644 64.4315C77.1021 63.0693 75.2545 62.304 73.328 62.304ZM73.328 73.632C72.5242 73.632 71.7384 73.3936 71.0701 72.947C70.4018 72.5005 69.8809 71.8658 69.5733 71.1232C69.2657 70.3806 69.1852 69.5634 69.3421 68.7751C69.4989 67.9868 69.8859 67.2626 70.4543 66.6943C71.0226 66.1259 71.7468 65.7389 72.5351 65.582C73.3235 65.4252 74.1406 65.5057 74.8832 65.8133C75.6258 66.1209 76.2605 66.6418 76.7071 67.3101C77.1536 67.9784 77.392 68.7642 77.392 69.568C77.3835 70.6402 76.9516 71.6657 76.1904 72.421C75.4292 73.1762 74.4003 73.6 73.328 73.6V73.632Z" fill="white"/>
</svg>
