<svg width="80" height="80" viewBox="0 0 80 80" fill="none" xmlns="http://www.w3.org/2000/svg">
<circle cx="40" cy="40" r="37.5" stroke="#D4D4D4" stroke-width="5"/>
<g clip-path="url(#clip0)">
<path fill-rule="evenodd" clip-rule="evenodd" d="M60.576 58H19.424C17.534 58 16 56.466 16 54.576V27.424C16 25.534 17.534 24 19.424 24H60.576C62.466 24 64 25.534 64 27.424V54.576C64 56.466 62.466 58 60.576 58ZM40 45.828L21.316 32.862L21.276 56H58.644V32.862L40 45.828ZM57.738 26H22.16L40 38.458C40 38.458 52.504 29.646 57.738 26Z" fill="#D4D4D4"/>
</g>
<defs>
<clipPath id="clip0">
<rect width="48" height="48" fill="white" transform="translate(16 16)"/>
</clipPath>
</defs>
</svg>
