<svg width="80" height="80" viewBox="0 0 80 80" fill="none" xmlns="http://www.w3.org/2000/svg">
<circle cx="40" cy="40" r="37.5" stroke="#D4D4D4" stroke-width="5"/>
<g clip-path="url(#clip0)">
<path d="M39.5035 0.000164569C60.2085 0.000166379 77 17.2299 77 38.4853C77 55.4882 66.2561 69.9113 51.3546 75.0002C49.4784 75.3545 48.7947 74.1662 48.7947 73.1456C48.7947 72.2313 48.8269 69.8121 48.8454 66.6015C59.2762 68.9262 61.477 61.4418 61.477 61.4418C63.1828 56.9955 65.6414 55.8119 65.6414 55.8119C69.0462 53.4258 65.3836 53.473 65.3836 53.473C61.6197 53.7447 59.6399 57.4397 59.6399 57.4397C56.2949 63.32 50.862 61.6213 48.7256 60.6361C48.3849 58.1508 47.4158 56.4545 46.3453 55.493C54.672 54.522 63.4268 51.2192 63.4268 36.4725C63.4268 32.272 61.965 28.8345 59.5662 26.146C59.953 25.1726 61.2398 21.2579 59.1979 15.9612C59.1979 15.9612 56.0509 14.9265 48.8868 19.9066C45.8964 19.0514 42.6873 18.6261 39.4988 18.6096C36.3127 18.6261 33.1059 19.0514 30.1109 19.9066C22.9514 14.9265 19.809 15.9612 19.809 15.9612C17.7624 21.2579 19.0493 25.1726 19.4338 26.146C17.0304 28.8345 15.5801 32.2719 15.5801 36.4725C15.5801 51.257 24.3487 54.5102 32.7008 55.4623C31.3563 56.6506 30.1569 58.9989 30.1569 62.5876C30.1569 67.7331 30.203 71.884 30.203 73.1456C30.203 74.1757 29.5261 75.3734 27.6246 74.9978C12.7347 69.8972 1.99999 55.4835 2 38.4853C2 17.2299 18.7915 0.000162758 39.5035 0.000164569Z" fill="#D4D4D4"/>
</g>
<defs>
<clipPath id="clip0">
<rect width="75" height="75" fill="white" transform="translate(77 75) rotate(-180)"/>
</clipPath>
</defs>
</svg>
