<svg width="80" height="80" viewBox="0 0 80 80" fill="none" xmlns="http://www.w3.org/2000/svg">
<circle cx="40" cy="40" r="37.5" stroke="#D4D4D4" stroke-width="5"/>
<path d="M54 16H26C20.478 16 16 20.478 16 26V54C16 59.522 20.478 64 26 64H54C59.524 64 64 59.522 64 54V26C64 20.478 59.524 16 54 16ZM32 54H26V32H32V54ZM29 29.464C27.068 29.464 25.5 27.884 25.5 25.936C25.5 23.988 27.068 22.408 29 22.408C30.932 22.408 32.5 23.988 32.5 25.936C32.5 27.884 30.934 29.464 29 29.464ZM56 54H50V42.792C50 36.056 42 36.566 42 42.792V54H36V32H42V35.53C44.792 30.358 56 29.976 56 40.482V54Z" fill="#D4D4D4"/>
</svg>
